<?xml version="1.0" standalone="no"?>
<!DOCTYPE svg PUBLIC "-//W3C//DTD SVG 20010904//EN"
 "http://www.w3.org/TR/2001/REC-SVG-20010904/DTD/svg10.dtd">
<svg version="1.0" xmlns="http://www.w3.org/2000/svg"
 width="512.000000pt" height="512.000000pt" viewBox="0 0 512.000000 512.000000"
 preserveAspectRatio="xMidYMid meet">

<g transform="translate(0.000000,512.000000) scale(0.100000,-0.100000)"
fill="#000000" stroke="none">
<path d="M95 4556 c-41 -18 -83 -69 -90 -109 -3 -18 -5 -157 -3 -309 3 -314 3
-312 88 -355 41 -21 58 -23 207 -23 l163 0 0 -1449 0 -1449 -179 -4 c-163 -3
-182 -5 -207 -24 -51 -38 -69 -71 -69 -129 0 -58 18 -91 69 -129 l27 -21 2459
0 2459 0 27 21 c51 38 69 71 69 129 0 58 -18 91 -69 129 -25 19 -44 21 -207
24 l-179 4 0 1449 0 1449 163 0 c149 0 166 2 207 23 87 44 85 37 85 382 0 291
-1 305 -21 331 -11 15 -33 37 -48 48 l-27 21 -2447 2 c-2019 2 -2452 0 -2477
-11z m4255 -2246 l0 -1450 -1790 0 -1790 0 0 1450 0 1450 1790 0 1790 0 0
-1450z"/>
<path d="M1152 3300 c-96 -59 -96 -201 0 -260 33 -20 54 -20 1408 -20 1354 0
1375 0 1408 20 96 59 96 201 0 260 -33 20 -54 20 -1408 20 -1354 0 -1375 0
-1408 -20z"/>
<path d="M1164 2741 c-111 -51 -114 -214 -4 -272 33 -18 90 -19 1400 -19 1310
0 1367 1 1400 19 110 58 107 221 -4 272 -39 18 -96 19 -1396 19 -1300 0 -1357
-1 -1396 -19z"/>
<path d="M1160 2152 c-104 -52 -109 -206 -8 -267 33 -20 51 -20 1408 -20 1357
0 1375 0 1408 20 101 61 96 215 -8 267 -33 17 -120 18 -1400 18 -1280 0 -1367
-1 -1400 -18z"/>
<path d="M1152 1580 c-96 -59 -96 -201 0 -260 33 -20 54 -20 1408 -20 1354 0
1375 0 1408 20 96 59 96 201 0 260 -33 20 -54 20 -1408 20 -1354 0 -1375 0
-1408 -20z"/>
</g>
</svg>
